<?xml version="1.0" encoding="UTF-8"?>
<svg id="Calque_1" xmlns="http://www.w3.org/2000/svg" viewBox="0 0 515.41 515.41">
  <defs>
    <style>
      .cls-1 {
        fill: #1d1d1b;
      }

      .cls-2 {
        fill: #fff;
      }

      .cls-3 {
        fill: #f0e8d5;
      }

      .cls-4 {
        fill: none;
        stroke: #1d1d1b;
        stroke-miterlimit: 10;
        stroke-width: 2px;
      }

      .cls-5 {
        fill: #ca6715;
      }

      .cls-6 {
        fill: #c11718;
      }
    </style>
  </defs>
  <g>
    <path class="cls-5" d="M515.33,253.11c-.19-10.62-.99-21.09-2.43-31.37-1,.41-2.02.81-3.06,1.2-152.44,57.51-214.31-142.26-347.32-72.59-61.38,32.15-103.49,7.5-131.53-15.26-11.77,21.72-20.48,45.32-25.63,70.23,65.13-15.59,183.71,93.38,7.25,132.09,7.23,22.23,17.36,43.15,30.01,62.27,31.91-.76,97.26,4.69,137.77,18.33,112.8,37.97,120.61-81.53,304.88-54.72,2.43.35,4.77.72,7.07,1.09,3.71-8.14,7.01-16.51,9.87-25.08-90-35.73-34.61-80.02,13.11-86.19Z"/>
    <path class="cls-6" d="M162.52,150.35c133.01-69.67,194.88,130.11,347.32,72.59,1.04-.39,2.06-.79,3.06-1.2-7.79-55.76-33.43-105.79-70.94-144.17-92.88,61.93-141.32-29.25-124.69-70.65-19.12-4.53-39.06-6.92-59.57-6.92C159.77,0,74.6,54.63,30.99,135.08c28.04,22.76,70.15,47.42,131.53,15.26Z"/>
    <path class="cls-6" d="M515.33,253.11c-47.73,6.17-103.11,50.46-13.11,86.19,8.55-25.64,13.19-53.07,13.19-81.59,0-1.54-.05-3.07-.08-4.6Z"/>
    <path class="cls-6" d="M180.39,418c-40.52-13.64-105.87-19.08-137.77-18.33,46.12,69.73,125.22,115.74,215.09,115.74,104.28,0,194.07-61.95,234.64-151.04-2.3-.37-4.64-.74-7.07-1.09-184.27-26.8-192.09,92.69-304.88,54.72Z"/>
    <path class="cls-6" d="M5.36,205.32c-3.5,16.92-5.36,34.44-5.36,52.39,0,27.82,4.45,54.6,12.61,79.7,176.46-38.71,57.88-147.67-7.25-132.09Z"/>
    <path class="cls-5" d="M441.96,77.57c-33.5-34.27-76.47-59.23-124.69-70.65-16.63,41.4,31.8,132.58,124.69,70.65Z"/>
  </g>
  <circle class="cls-5" cx="238.47" cy="76.27" r="17.87"/>
  <circle class="cls-5" cx="426.09" cy="165.61" r="14.52"/>
  <circle class="cls-5" cx="322.22" cy="447.04" r="17.87"/>
  <ellipse class="cls-2" cx="186.34" cy="264.21" rx="20.66" ry="38.57"/>
  <ellipse class="cls-1" cx="194.44" cy="266.64" rx="12.56" ry="30.15"/>
  <circle class="cls-2" cx="186.34" cy="242.92" r="4.05"/>
  <ellipse class="cls-2" cx="334.7" cy="264.21" rx="20.66" ry="38.57"/>
  <ellipse class="cls-1" cx="342.8" cy="266.64" rx="12.56" ry="30.15"/>
  <circle class="cls-2" cx="334.7" cy="242.92" r="4.05"/>
  <path class="cls-4" d="M220.6,354.19c19.28,15.11,57.06,16.73,72.17,5.13"/>
  <ellipse class="cls-3" cx="169.41" cy="328.57" rx="20.98" ry="8.84"/>
  <ellipse class="cls-3" cx="351.22" cy="328.57" rx="20.98" ry="8.84"/>
</svg>